# xmcd CD database file
#
# Track frame offsets:
#	150
#	17394
#	35165
#	54654
#
# Disc length: 1083 seconds
#
# Revision: 0
# Processed by: cddbd v1.5.2PL0 Copyright (c) Steve Scherf et al.
# Submitted via: CDex 1.70beta2
#
DISCID=2b043904
DTITLE=Mason Proffit - Is Back
DYEAR=2003
DGENRE=Country
TTITLE0=Lilly
TTITLE1=Old Joe Clark
TTITLE2=Victoria
TTITLE3=Two Hangmen
EXTD=YEAR: 2003
EXTT0=
EXTT1=
EXTT2=
EXTT3=
PLAYORDER=
